<?xml version="1.0" standalone="no"?>
<!DOCTYPE svg PUBLIC "-//W3C//DTD SVG 20010904//EN"
 "http://www.w3.org/TR/2001/REC-SVG-20010904/DTD/svg10.dtd">
<svg version="1.0" xmlns="http://www.w3.org/2000/svg"
 width="512.000000pt" height="512.000000pt" viewBox="0 0 512.000000 512.000000"
 preserveAspectRatio="xMidYMid meet">

<g transform="translate(0.000000,512.000000) scale(0.100000,-0.100000)"
fill="#000000" stroke="none">
<path d="M800 4448 c-61 -31 -82 -72 -88 -169 -3 -48 -9 -79 -16 -80 -130 -8
-190 -18 -213 -36 -52 -38 -64 -65 -71 -159 l-7 -89 -98 -16 c-102 -16 -133
-32 -171 -83 -21 -27 -21 -31 -24 -1418 -1 -931 1 -1402 8 -1428 12 -43 65
-96 108 -107 14 -3 97 3 182 15 262 37 326 43 580 49 544 13 1031 -71 1412
-243 72 -33 93 -38 158 -38 69 0 87 5 213 57 391 163 838 237 1362 224 237 -6
422 -22 609 -52 53 -8 110 -15 128 -15 42 0 93 31 118 72 20 33 20 54 20 1443
0 1380 0 1411 -20 1442 -29 49 -61 64 -172 82 l-103 18 -5 91 c-4 71 -10 97
-26 119 -28 39 -80 63 -135 63 -25 0 -67 3 -93 6 l-46 7 0 80 c0 99 -21 140
-88 170 -41 18 -58 19 -181 13 -378 -20 -690 -94 -966 -231 -223 -111 -411
-265 -544 -445 -35 -47 -64 -86 -65 -88 -2 -1 -32 37 -68 86 -293 392 -779
623 -1417 672 -197 15 -230 13 -281 -12z m421 -103 c340 -45 625 -144 864
-302 126 -84 290 -246 368 -364 l57 -86 0 -1377 0 -1377 -60 74 c-293 365
-819 588 -1444 614 -136 5 -162 9 -178 25 -17 17 -18 71 -18 1398 l0 1380 21
21 c21 21 27 21 153 15 72 -4 179 -14 237 -21z m3073 9 c14 -14 16 -155 16
-1409 0 -1318 -1 -1395 -17 -1403 -10 -5 -90 -12 -178 -15 -285 -11 -539 -63
-791 -160 -273 -105 -492 -263 -676 -487 l-37 -45 -1 1371 0 1372 61 93 c77
118 251 293 369 370 267 176 612 287 990 318 178 14 247 13 264 -5z m-3582
-1531 c3 -1258 3 -1279 23 -1312 41 -69 58 -75 240 -82 444 -19 821 -128 1115
-324 38 -25 91 -66 117 -91 l48 -45 -73 36 c-375 183 -763 258 -1345 257
l-308 -1 -10 25 c-5 16 -9 554 -9 1392 0 1209 2 1370 15 1389 13 18 28 23 78
26 34 2 72 4 84 5 l23 2 2 -1277z m3881 1255 c16 -8 17 -85 17 -1402 0 -1242
-2 -1395 -15 -1406 -12 -10 -57 -12 -196 -7 -559 18 -1047 -66 -1417 -243 -67
-33 -120 -55 -117 -50 3 5 54 46 113 90 288 218 704 350 1152 367 178 6 226
20 260 75 20 33 20 46 20 1309 0 702 3 1279 6 1282 9 9 155 -3 177 -15z"/>
<path d="M1042 3697 c-22 -26 -11 -71 18 -78 59 -17 294 -38 312 -28 21 11 25
61 6 77 -17 13 -123 30 -234 38 -74 6 -92 4 -102 -9z"/>
<path d="M1604 3585 c-26 -40 -2 -65 97 -98 164 -56 332 -148 506 -278 41 -31
43 -31 68 -15 41 27 33 59 -27 107 -136 108 -323 211 -506 278 -101 37 -117
38 -138 6z"/>
<path d="M1043 3389 c-7 -7 -13 -26 -13 -41 0 -37 18 -44 155 -58 132 -14 310
-50 441 -90 99 -31 124 -30 138 6 12 32 -5 53 -59 73 -188 70 -630 144 -662
110z"/>
<path d="M1992 3124 c-40 -28 -29 -60 36 -101 31 -20 92 -63 135 -95 62 -47
84 -58 103 -54 24 6 41 44 31 69 -9 24 -252 197 -277 197 -3 0 -16 -7 -28 -16z"/>
<path d="M1048 3080 c-21 -13 -24 -63 -5 -77 6 -6 79 -18 160 -27 141 -17 149
-17 168 0 46 42 8 78 -97 92 -139 19 -208 23 -226 12z"/>
<path d="M1606 2974 c-19 -19 -21 -58 -3 -71 6 -5 48 -22 92 -37 168 -59 328
-144 466 -248 72 -54 84 -60 108 -52 41 15 41 56 -1 95 -101 93 -348 231 -527
293 -119 41 -115 41 -135 20z"/>
<path d="M1048 2769 c-21 -12 -24 -62 -5 -78 8 -6 58 -15 113 -21 194 -21 426
-73 575 -130 70 -26 105 -26 120 1 27 51 -28 83 -256 148 -188 54 -512 101
-547 80z"/>
<path d="M1049 2452 c-23 -16 -25 -55 -4 -72 8 -7 54 -16 101 -21 48 -5 114
-13 148 -19 86 -14 94 -13 112 15 15 23 15 27 1 49 -13 20 -30 26 -99 36 -170
24 -238 27 -259 12z"/>
<path d="M2077 2442 c-33 -36 -21 -57 70 -126 87 -65 118 -77 141 -54 33 33 1
79 -112 157 -67 46 -76 48 -99 23z"/>
<path d="M1632 2338 c-16 -16 -15 -53 1 -66 7 -6 55 -27 107 -47 139 -53 296
-138 400 -216 50 -38 102 -69 114 -69 28 0 46 18 46 46 0 61 -312 257 -538
338 -81 29 -112 32 -130 14z"/>
<path d="M1042 2138 c-7 -7 -12 -25 -12 -40 0 -37 17 -43 155 -57 61 -6 169
-23 241 -38 72 -14 138 -24 147 -20 9 3 19 18 23 33 5 21 2 31 -14 44 -24 20
-181 55 -336 76 -133 17 -188 18 -204 2z"/>
<path d="M1812 1958 c-16 -16 -15 -53 3 -68 8 -6 47 -27 87 -47 68 -32 207
-121 305 -194 41 -31 43 -31 68 -15 39 26 33 58 -22 104 -109 90 -356 232
-406 232 -13 0 -28 -5 -35 -12z"/>
<path d="M3860 3694 c-74 -11 -99 -18 -112 -35 -23 -27 -23 -34 3 -60 16 -16
28 -19 58 -14 21 3 87 12 149 19 61 7 118 18 126 26 19 15 21 51 4 68 -15 15
-105 14 -228 -4z"/>
<path d="M3364 3571 c-188 -72 -410 -198 -506 -289 -33 -31 -38 -76 -9 -92 29
-15 31 -14 114 49 133 102 329 205 487 256 30 10 61 22 68 28 19 15 15 65 -7
77 -28 15 -36 13 -147 -29z"/>
<path d="M3945 3393 c-218 -27 -530 -101 -572 -135 -21 -17 -15 -56 10 -72 20
-13 34 -11 139 19 151 44 291 72 435 87 70 7 121 17 129 26 17 17 18 54 2 70
-11 11 -75 14 -143 5z"/>
<path d="M3044 3104 c-34 -20 -95 -62 -135 -93 -61 -47 -75 -62 -77 -89 -3
-26 1 -34 23 -44 22 -10 30 -8 68 20 23 18 84 60 135 95 103 69 121 97 82 129
-12 10 -25 18 -29 18 -3 0 -34 -16 -67 -36z"/>
<path d="M3885 3073 c-123 -16 -152 -32 -141 -76 3 -14 15 -28 26 -32 23 -7
274 22 308 35 26 11 30 51 6 74 -18 19 -51 19 -199 -1z"/>
<path d="M3415 2966 c-182 -62 -368 -161 -510 -269 -72 -55 -91 -91 -64 -123
20 -25 48 -15 127 44 138 104 286 183 462 246 78 28 97 38 104 60 8 20 6 30
-9 46 -23 25 -24 25 -110 -4z"/>
<path d="M3918 2765 c-222 -27 -574 -119 -631 -165 -18 -15 -20 -22 -12 -46
14 -41 46 -41 152 -4 168 60 342 98 548 121 55 6 106 15 112 21 31 26 0 89
-43 87 -10 -1 -67 -7 -126 -14z"/>
<path d="M4010 2463 c-154 -16 -267 -36 -282 -50 -24 -21 -23 -46 2 -68 18
-16 27 -17 92 -6 40 6 112 15 160 20 95 9 118 20 118 57 0 20 -35 57 -50 52
-3 0 -21 -3 -40 -5z"/>
<path d="M2959 2423 c-97 -66 -129 -96 -129 -123 0 -56 50 -66 102 -22 18 16
55 44 81 62 58 41 70 75 37 102 -12 10 -26 18 -30 18 -4 0 -32 -17 -61 -37z"/>
<path d="M3355 2319 c-234 -86 -525 -272 -525 -333 0 -53 50 -60 106 -15 122
98 290 191 458 255 104 40 116 48 116 78 0 54 -41 58 -155 15z"/>
<path d="M3935 2143 c-166 -20 -347 -57 -382 -79 -26 -17 -30 -55 -8 -74 17
-14 39 -12 187 19 54 11 148 26 210 32 62 7 123 18 136 26 24 15 29 52 10 71
-11 11 -83 14 -153 5z"/>
<path d="M3143 1911 c-110 -58 -212 -125 -279 -183 -43 -38 -47 -83 -9 -100
19 -8 29 -8 43 3 11 8 61 44 112 81 51 37 141 92 201 123 111 57 130 76 109
115 -17 32 -57 24 -177 -39z"/>
</g>
</svg>
